<svg width="50" height="50" viewBox="0 0 50 50" fill="none" xmlns="http://www.w3.org/2000/svg">
<g clip-path="url(#clip0_156_1424)">
<path d="M44.043 24.5701C44.043 23.8964 43.6035 23.3105 42.9298 23.1346L33.4667 20.7325C33.3496 20.7031 33.2325 20.6738 33.086 20.6738H29.3945L27.9297 22.1386L26.4648 20.6738H17.6758L16.2697 22.1386L14.7461 20.6738H1.46484C0.644302 20.6738 0 21.3185 0 22.1386V29.4628L1.05476 31.0154L0 32.3925V38.2519L1.05476 39.8045L0 41.1816V48.5058C0 49.326 0.644302 49.9706 1.46484 49.9706H14.7461L16.2697 48.6817L17.6758 49.9706H26.4648L27.8709 48.6817L29.3945 49.9706H42.5781C43.3987 49.9706 44.043 49.326 44.043 48.5058V41.1816L42.6369 39.5409L44.043 38.2519V32.3925L42.6369 30.8689L44.043 29.4628V24.5701Z" fill="#FDBF00"/>
<path d="M44.043 29.4628L42.6369 30.8689L44.043 32.3925V38.2519L42.6369 39.5409L44.043 41.1816V48.5058C44.043 49.326 43.3987 49.9706 42.5781 49.9706H22.0703V20.6738H26.4648L27.9297 22.1386L29.3945 20.6738H33.086C33.2325 20.6738 33.3496 20.7031 33.4667 20.7325L42.9295 23.1346C43.6031 23.3105 44.043 23.8964 44.043 24.5701V29.4628Z" fill="#FF9100"/>
<path d="M47.9492 9.93156L40.918 0.556564C40.625 0.204849 40.1855 0 39.7461 0C39.3066 0 38.8672 0.204849 38.5742 0.556564L31.543 9.93156C30.1952 11.7188 29.4922 13.8573 29.4922 16.0839C29.4922 21.7384 34.0919 26.3378 39.7461 26.3378C45.4002 26.3378 50 21.7384 50 16.0839C50 13.8573 49.297 11.7188 47.9492 9.93156V9.93156Z" fill="#FF8859"/>
<path d="M50 16.0839C50 21.7384 45.4002 26.3378 39.7461 26.3378V0C40.1855 0 40.625 0.204849 40.918 0.556564L47.9492 9.93156C49.297 11.7188 50 13.8573 50 16.0839V16.0839Z" fill="#FF3939"/>
<path d="M44.4336 16.9628L40.918 12.2753C40.625 11.9236 40.1856 11.7188 39.7461 11.7188C39.3063 11.7188 38.8672 11.9236 38.5739 12.2753L35.0586 16.9628C34.2968 17.9882 33.8864 19.1895 33.8864 20.4784C33.8864 23.7011 36.5235 26.3378 39.7457 26.3378C42.9684 26.3378 45.6051 23.7011 45.6051 20.4784C45.6055 19.1895 45.1954 17.9882 44.4336 16.9628V16.9628Z" fill="#FF3939"/>
<path d="M45.6055 20.4784C45.6055 23.7011 42.9688 26.3378 39.7461 26.3378V11.7188C40.1855 11.7188 40.625 11.9236 40.918 12.2753L44.4336 16.9628C45.1954 17.9882 45.6055 19.1895 45.6055 20.4784V20.4784Z" fill="#CD0000"/>
<path d="M44.043 32.3925V29.4628H29.3945V20.6738H26.4648V29.4628H17.6758V20.6738H14.7461V29.4628H0V32.3925H8.88672V38.2519H0V41.1816H14.7461V49.9706H17.6758V41.1816H26.4648V49.9706H29.3945V41.1816H44.043V38.2519H35.2539V32.3925H44.043ZM32.3242 38.2519H11.8164V32.3925H32.3242V38.2519Z" fill="#FFDA2D"/>
<path d="M35.2539 32.3925V38.2519H44.043V41.1816H29.3945V49.9706H26.4648V41.1816H22.0703V38.2519H32.3242V32.3925H22.0703V29.4628H26.4648V20.6738H29.3945V29.4628H44.043V32.3925H35.2539Z" fill="#FDBF00"/>
</g>
<defs>
<clipPath id="clip0_156_1424">
<rect width="50" height="50" fill="white"/>
</clipPath>
</defs>
</svg>
